<?xml version="1.0" encoding="utf-8"?>
<!-- Generator: Adobe Illustrator 21.1.0, SVG Export Plug-In . SVG Version: 6.00 Build 0)  -->
<svg version="1.1" id="Layer_1" xmlns="http://www.w3.org/2000/svg" xmlns:xlink="http://www.w3.org/1999/xlink" x="0px" y="0px"
	 viewBox="0 0 1339.3 560.9" style="enable-background:new 0 0 1339.3 560.9;" xml:space="preserve">
<style type="text/css">
	.Arched_x0020_Green{fill:url(#SVGID_1_);stroke:#FFFFFF;stroke-width:0.25;stroke-miterlimit:1;}
	.st0{fill:#FFFFFF;}
</style>
<linearGradient id="SVGID_1_" gradientUnits="userSpaceOnUse" x1="-80.208" y1="780.417" x2="-79.5009" y2="779.7099">
	<stop  offset="0" style="stop-color:#259E2E"/>
	<stop  offset="0.9831" style="stop-color:#1C381D"/>
</linearGradient>
<path class="st0" d="M1091.6,0H892.8c-1.7,15.8-3.3,31.5-4.9,47.3c-4.4,41.3-8.5,76-12.2,104.3c-6,45.1-11.4,81.8-16.3,110.2
	c-5.4-35.4-13.3-89.4-23.6-162.2c-3.3-24-7.9-57.1-13.9-99.5H626.1v560.9h127.2V190l61.2,370.9h90.5l59.5-379.1v379.1h127.2V0z
	 M578.8,449.2h-106V325.3h91.4V218.4h-91.4V111.7h97.1V0h-243v560.9h252V449.2z M269,449.2H159.8L269,111.7V0H13.8v111.7h97.8
	L0,479.3v81.6h269V449.2z M1221.8,45.7l-80.7-37.4v42.8l69.3,27.4h-69.3v41.2h195.2V78.5h-57.9l-16.7-8.8l74.6-24V3.1L1221.8,45.7z
	 M1218,194.3h-42.4v-48.9h-34.5v90.4h195.2v-95.7h-34.9v54.1h-48.5v-43.9H1218V194.3z M1141.1,249.3v41.8l130.2,13.5l-130.2,11.1
	v42.1l195.2-26.6v-52.9L1141.1,249.3z M1333.8,482.7c4.5,5.8,6.8,13.3,6.8,22.5c0,8.6-1.3,16.4-4.1,23.3
	c-2.8,6.9-6.6,12.8-11.6,17.5c-5,4.8-10.8,8.5-17.5,11.1c-6.7,2.6-14,3.9-21.9,3.9c-6.5,0-12.6-1.1-18.2-3.4
	c-5.8-2.2-10.8-5.3-15.5-9.3c-4.6-4.1-8.4-8.9-11.4-14.6c-3.1-5.8-5.1-12.1-6.3-19.3h-1c-1.1,5.9-3,11.3-5.5,16.4
	c-2.6,5.1-5.9,9.4-9.9,13.2c-4,3.8-8.8,6.7-14.1,8.8c-5.4,2.2-11.2,3.2-17.6,3.2c-6.7,0-12.9-1.4-18.6-4.1
	c-5.9-2.8-10.9-6.6-15.3-11.6c-4.3-5-7.6-10.9-10-17.8c-2.4-7-3.6-14.5-3.6-22.7c0-9.2,1.1-17,3.4-23.4c2.1-6.4,5.1-11.7,8.9-15.7
	c3.8-4.1,8-7,13-8.9c4.8-2,10-2.9,15.5-2.9c5.4,0,9.4,1.2,12,3.7c2.7,2.5,4.1,5.6,4.1,9.3c0,3.7-1.4,6.6-4.1,8.9
	c-2.6,2.3-6.3,3.4-11.2,3.4c-5.1,0-9.7,0.3-13.9,1c-4.1,0.7-7.6,1.8-10.6,3.5c-2.8,1.6-5.1,3.9-6.6,6.9c-1.7,3.1-2.4,7-2.4,11.8
	c0,8.3,3.4,14.8,10.2,19.4c6.8,4.7,17.2,7.1,31.1,7.1c13.6,0,24.1-2,31.3-5.9c7.3-4,10.9-10.3,10.9-19.2v-83.5h7.5v31.7h74.9
	c12.8,0,19.1-4.7,19.1-14.3c0-2.9-0.9-5.9-2.7-9.1c-1.8-3.1-4.2-5.7-7.5-7.8l6-4.6c1.3,0.7,2.7,1.9,4.2,3.6c1.4,1.6,2.9,3.7,4.3,6.2
	c1.3,2.5,2.4,5.4,3.4,8.8c0.9,3.4,1.3,7.2,1.3,11.5c0,3.1-0.4,6.3-1.3,9.6c-0.7,3.4-2.2,6.5-4.1,9.3c-1.9,2.8-4.6,5.3-7.9,7.3
	c-3.4,2.1-7.4,3.3-12.1,3.9C1323.1,473,1329.4,477,1333.8,482.7 M1237.5,498.6c0,9.3,4,16.4,12.1,21.1c8,4.6,19.7,7,35.4,7
	c16.4,0,28.2-2.6,35.5-7.7c7.4-5.1,11.1-11.2,11.1-18.6c0-7.1-3.1-13.1-9.4-18c-6.3-4.9-16.8-7.3-31.5-7.3h-53.2V498.6z"/>
</svg>
